<?xml version="1.0" encoding="UTF-8" standalone="no" ?>
<!DOCTYPE svg PUBLIC "-//W3C//DTD SVG 1.1//EN" "http://www.w3.org/Graphics/SVG/1.1/DTD/svg11.dtd">
<svg xmlns="http://www.w3.org/2000/svg" xmlns:xlink="http://www.w3.org/1999/xlink" version="1.1" width="1080" height="1080" viewBox="0 0 1080 1080" xml:space="preserve">
<desc>Created with Fabric.js 5.2.4</desc>
<defs>
</defs>
<g transform="matrix(1 0 0 1 540 540)" id="5c585080-e01e-47f1-8503-5dab9186fdd2"  >
</g>
<g transform="matrix(1 0 0 1 540 540)" id="5d75125a-a489-48be-990f-850668e9a6c6"  >
<rect style="stroke: none; stroke-width: 1; stroke-dasharray: none; stroke-linecap: butt; stroke-dashoffset: 0; stroke-linejoin: miter; stroke-miterlimit: 4; fill: rgb(0,0,0); fill-rule: nonzero; opacity: 1; visibility: hidden;" vector-effect="non-scaling-stroke"  x="-540" y="-540" rx="0" ry="0" width="1080" height="1080" />
</g>
<g transform="matrix(0.59 0 0 0.59 357.23 420.67)"  >
<path style="stroke: rgb(230,230,230); stroke-width: 1; stroke-dasharray: none; stroke-linecap: butt; stroke-dashoffset: 0; stroke-linejoin: miter; stroke-miterlimit: 4; fill: none; fill-rule: nonzero; opacity: 1;" vector-effect="non-scaling-stroke"  transform=" translate(-30.72, -222.04)" d="M 27.1251 263.08 C 22.0918 263.08 17.5779 262.2 13.5832 260.44 C 9.66842 258.6 6.59253 255.64 4.35552 251.56 C 2.11851 247.4 1 241.92 1 235.12 C 1 228.32 2.23835 222.6 4.71504 217.96 C 7.19173 213.32 10.5073 209.8 14.6618 207.4 C 18.8162 205 23.3701 203.8 28.3235 203.8 C 34.5552 203.8 39.8681 205.24 44.2622 208.12 L 44.2622 181 L 60.4406 181 L 60.4406 261.88 L 46.5392 261.88 L 45.5805 256.6 C 43.1038 258.76 40.3874 260.4 37.4313 261.52 C 34.5552 262.56 31.1198 263.08 27.1251 263.08 Z M 31.5592 251.2 C 36.5925 251.2 40.8268 249.48 44.2622 246.04 L 44.2622 220.12 C 40.9067 217.16 36.9919 215.68 32.5179 215.68 C 22.4513 215.68 17.4181 222.16 17.4181 235.12 C 17.4181 241.2 18.6564 245.4 21.1331 247.72 C 23.6098 250.04 27.0852 251.2 31.5592 251.2 Z" stroke-linecap="round" />
</g>
<g transform="matrix(0.59 0 0 0.59 397.26 427.39)"  >
<path style="stroke: rgb(230,230,230); stroke-width: 1; stroke-dasharray: none; stroke-linecap: butt; stroke-dashoffset: 0; stroke-linejoin: miter; stroke-miterlimit: 4; fill: none; fill-rule: nonzero; opacity: 1;" vector-effect="non-scaling-stroke"  transform=" translate(-98.56, -233.44)" d="M 102.514 263.08 C 92.6869 263.08 84.8973 260.64 79.145 255.76 C 73.3927 250.8 70.5165 243.32 70.5165 233.32 C 70.5165 224.28 72.9133 217.12 77.7069 211.84 C 82.5804 206.48 89.8107 203.8 99.3979 203.8 C 108.186 203.8 114.897 206.12 119.531 210.76 C 124.245 215.32 126.602 221.32 126.602 228.76 L 126.602 239.08 L 85.4965 239.08 C 86.3753 243.64 88.4526 246.76 91.7282 248.44 C 95.0837 250.12 99.7974 250.96 105.869 250.96 C 108.905 250.96 111.981 250.68 115.097 250.12 C 118.293 249.56 121.009 248.84 123.246 247.96 L 123.246 259.48 C 120.61 260.68 117.534 261.56 114.018 262.12 C 110.503 262.76 106.668 263.08 102.514 263.08 Z M 85.4965 229.12 L 112.46 229.12 L 112.46 226 C 112.46 222.72 111.502 220.16 109.584 218.32 C 107.667 216.4 104.431 215.44 99.8773 215.44 C 94.5244 215.44 90.7695 216.52 88.6124 218.68 C 86.5351 220.84 85.4965 224.32 85.4965 229.12 Z" stroke-linecap="round" />
</g>
<g transform="matrix(0.59 0 0 0.59 432.72 427.39)"  >
<path style="stroke: rgb(230,230,230); stroke-width: 1; stroke-dasharray: none; stroke-linecap: butt; stroke-dashoffset: 0; stroke-linejoin: miter; stroke-miterlimit: 4; fill: none; fill-rule: nonzero; opacity: 1;" vector-effect="non-scaling-stroke"  transform=" translate(-158.67, -233.44)" d="M 157.294 263.08 C 153.059 263.08 149.025 262.76 145.19 262.12 C 141.355 261.56 138.279 260.84 135.962 259.96 L 135.962 246.52 C 138.758 247.64 141.914 248.52 145.43 249.16 C 148.945 249.72 152.181 250 155.137 250 C 159.131 250 161.928 249.76 163.525 249.28 C 165.203 248.8 166.042 247.72 166.042 246.04 C 166.042 244.12 164.764 242.72 162.207 241.84 C 159.73 240.96 156.015 239.72 151.062 238.12 C 145.869 236.36 141.874 234.24 139.078 231.76 C 136.282 229.28 134.884 225.6 134.884 220.72 C 134.884 215.28 136.841 211.12 140.756 208.24 C 144.75 205.28 151.142 203.8 159.93 203.8 C 163.446 203.8 166.761 204.08 169.877 204.64 C 172.993 205.12 175.629 205.72 177.786 206.44 L 177.786 219.76 C 175.629 218.72 173.153 217.96 170.356 217.48 C 167.56 216.92 164.963 216.64 162.567 216.64 C 159.131 216.64 156.375 216.88 154.298 217.36 C 152.3 217.84 151.302 218.88 151.302 220.48 C 151.302 222.24 152.38 223.48 154.537 224.2 C 156.774 224.92 160.21 226 164.844 227.44 C 169.398 228.8 172.953 230.28 175.509 231.88 C 178.066 233.48 179.864 235.4 180.902 237.64 C 181.941 239.8 182.46 242.52 182.46 245.8 C 182.46 257.32 174.071 263.08 157.294 263.08 Z" stroke-linecap="round" />
</g>
<g transform="matrix(0.59 0 0 0.59 458.79 420.56)"  >
<path style="stroke: rgb(230,230,230); stroke-width: 1; stroke-dasharray: none; stroke-linecap: butt; stroke-dashoffset: 0; stroke-linejoin: miter; stroke-miterlimit: 4; fill: none; fill-rule: nonzero; opacity: 1;" vector-effect="non-scaling-stroke"  transform=" translate(-202.86, -221.86)" d="M 197.644 194.56 L 197.644 181.84 L 215.261 181.84 L 215.261 194.56 L 197.644 194.56 Z M 198.962 261.88 L 198.962 217 L 190.454 217 L 191.892 205 L 215.141 205 L 215.141 261.88 L 198.962 261.88 Z" stroke-linecap="round" />
</g>
<g transform="matrix(0.59 0 0 0.59 490.57 433.27)"  >
<path style="stroke: rgb(230,230,230); stroke-width: 1; stroke-dasharray: none; stroke-linecap: butt; stroke-dashoffset: 0; stroke-linejoin: miter; stroke-miterlimit: 4; fill: none; fill-rule: nonzero; opacity: 1;" vector-effect="non-scaling-stroke"  transform=" translate(-256.72, -243.4)" d="M 252.884 283 C 248.65 283 244.295 282.72 239.821 282.16 C 235.427 281.6 231.712 280.8 228.676 279.76 L 228.676 267.64 C 231.872 268.68 235.627 269.48 239.941 270.04 C 244.255 270.68 248.29 271 252.045 271 C 257.558 271 261.552 270.68 264.029 270.04 C 266.506 269.48 267.744 268.44 267.744 266.92 C 267.744 265.64 267.185 264.76 266.066 264.28 C 265.028 263.8 262.791 263.56 259.355 263.56 L 243.896 263.56 C 233.749 263.56 228.676 259.8 228.676 252.28 C 228.676 249.96 229.315 247.84 230.594 245.92 C 231.872 244 233.909 242.48 236.705 241.36 C 230.234 238.08 226.998 232.56 226.998 224.8 C 226.998 217.44 229.275 212.12 233.829 208.84 C 238.383 205.48 245.134 203.8 254.082 203.8 C 255.92 203.8 257.917 203.96 260.074 204.28 C 262.311 204.52 263.989 204.76 265.108 205 L 286.439 205 L 286.079 215.2 L 277.092 215.2 C 279.568 217.52 280.807 220.76 280.807 224.92 C 280.807 230.76 278.969 235.44 275.294 238.96 C 271.619 242.4 266.186 244.12 258.996 244.12 C 257.717 244.12 256.479 244.08 255.281 244 C 254.162 243.84 253.004 243.68 251.805 243.52 C 249.408 243.84 247.371 244.4 245.693 245.2 C 244.096 246 243.297 247.08 243.297 248.44 C 243.297 250.28 244.934 251.2 248.21 251.2 L 264.269 251.2 C 270.021 251.2 274.455 252.52 277.571 255.16 C 280.687 257.72 282.245 261.48 282.245 266.44 C 282.245 272.04 279.728 276.2 274.695 278.92 C 269.661 281.64 262.391 283 252.884 283 Z M 254.202 235 C 258.996 235 262.311 234.2 264.149 232.6 C 266.066 230.92 267.025 228.12 267.025 224.2 C 267.025 220.28 266.066 217.44 264.149 215.68 C 262.311 213.92 258.996 213.04 254.202 213.04 C 249.648 213.04 246.373 213.92 244.375 215.68 C 242.378 217.36 241.379 220.2 241.379 224.2 C 241.379 227.88 242.298 230.6 244.136 232.36 C 246.053 234.12 249.409 235 254.202 235 Z" stroke-linecap="round" />
</g>
<g transform="matrix(0.59 0 0 0.59 528.94 427.04)"  >
<path style="stroke: rgb(230,230,230); stroke-width: 1; stroke-dasharray: none; stroke-linecap: butt; stroke-dashoffset: 0; stroke-linejoin: miter; stroke-miterlimit: 4; fill: none; fill-rule: nonzero; opacity: 1;" vector-effect="non-scaling-stroke"  transform=" translate(-321.75, -232.84)" d="M 293.166 261.88 L 293.166 205 L 308.146 205 L 308.745 210.4 C 311.062 208.64 313.978 207.12 317.493 205.84 C 321.089 204.48 324.844 203.8 328.758 203.8 C 336.268 203.8 341.741 205.56 345.177 209.08 C 348.612 212.6 350.33 218.04 350.33 225.4 L 350.33 261.88 L 334.151 261.88 L 334.151 226.24 C 334.151 222.4 333.352 219.68 331.754 218.08 C 330.236 216.48 327.36 215.68 323.126 215.68 C 320.649 215.68 318.133 216.24 315.576 217.36 C 313.099 218.48 311.022 219.88 309.344 221.56 L 309.344 261.88 L 293.166 261.88 Z" stroke-linecap="round" />
</g>
<g transform="matrix(0.59 0 0 0.59 529.4 534.12)"  >
<path style="stroke: rgb(230,230,230); stroke-width: 1; stroke-dasharray: none; stroke-linecap: butt; stroke-dashoffset: 0; stroke-linejoin: miter; stroke-miterlimit: 4; fill: none; fill-rule: nonzero; opacity: 1;" vector-effect="non-scaling-stroke"  transform=" translate(-30.72, -222.04)" d="M 27.1251 263.08 C 22.0918 263.08 17.5779 262.2 13.5832 260.44 C 9.66842 258.6 6.59253 255.64 4.35552 251.56 C 2.11851 247.4 1 241.92 1 235.12 C 1 228.32 2.23835 222.6 4.71504 217.96 C 7.19173 213.32 10.5073 209.8 14.6618 207.4 C 18.8162 205 23.3701 203.8 28.3235 203.8 C 34.5552 203.8 39.8681 205.24 44.2622 208.12 L 44.2622 181 L 60.4406 181 L 60.4406 261.88 L 46.5392 261.88 L 45.5805 256.6 C 43.1038 258.76 40.3874 260.4 37.4313 261.52 C 34.5552 262.56 31.1198 263.08 27.1251 263.08 Z M 31.5592 251.2 C 36.5925 251.2 40.8268 249.48 44.2622 246.04 L 44.2622 220.12 C 40.9067 217.16 36.9919 215.68 32.5179 215.68 C 22.4513 215.68 17.4181 222.16 17.4181 235.12 C 17.4181 241.2 18.6564 245.4 21.1331 247.72 C 23.6098 250.04 27.0852 251.2 31.5592 251.2 Z" stroke-linecap="round" />
</g>
<g transform="matrix(0.59 0 0 0.59 569.42 540.85)"  >
<path style="stroke: rgb(230,230,230); stroke-width: 1; stroke-dasharray: none; stroke-linecap: butt; stroke-dashoffset: 0; stroke-linejoin: miter; stroke-miterlimit: 4; fill: none; fill-rule: nonzero; opacity: 1;" vector-effect="non-scaling-stroke"  transform=" translate(-98.56, -233.44)" d="M 102.514 263.08 C 92.6869 263.08 84.8973 260.64 79.145 255.76 C 73.3927 250.8 70.5165 243.32 70.5165 233.32 C 70.5165 224.28 72.9133 217.12 77.7069 211.84 C 82.5804 206.48 89.8107 203.8 99.3979 203.8 C 108.186 203.8 114.897 206.12 119.531 210.76 C 124.245 215.32 126.602 221.32 126.602 228.76 L 126.602 239.08 L 85.4965 239.08 C 86.3753 243.64 88.4526 246.76 91.7282 248.44 C 95.0837 250.12 99.7974 250.96 105.869 250.96 C 108.905 250.96 111.981 250.68 115.097 250.12 C 118.293 249.56 121.009 248.84 123.246 247.96 L 123.246 259.48 C 120.61 260.68 117.534 261.56 114.018 262.12 C 110.503 262.76 106.668 263.08 102.514 263.08 Z M 85.4965 229.12 L 112.46 229.12 L 112.46 226 C 112.46 222.72 111.502 220.16 109.584 218.32 C 107.667 216.4 104.431 215.44 99.8773 215.44 C 94.5244 215.44 90.7695 216.52 88.6124 218.68 C 86.5351 220.84 85.4965 224.32 85.4965 229.12 Z" stroke-linecap="round" />
</g>
<g transform="matrix(0.59 0 0 0.59 604.89 540.85)"  >
<path style="stroke: rgb(230,230,230); stroke-width: 1; stroke-dasharray: none; stroke-linecap: butt; stroke-dashoffset: 0; stroke-linejoin: miter; stroke-miterlimit: 4; fill: none; fill-rule: nonzero; opacity: 1;" vector-effect="non-scaling-stroke"  transform=" translate(-158.67, -233.44)" d="M 157.294 263.08 C 153.059 263.08 149.025 262.76 145.19 262.12 C 141.355 261.56 138.279 260.84 135.962 259.96 L 135.962 246.52 C 138.758 247.64 141.914 248.52 145.43 249.16 C 148.945 249.72 152.181 250 155.137 250 C 159.131 250 161.928 249.76 163.525 249.28 C 165.203 248.8 166.042 247.72 166.042 246.04 C 166.042 244.12 164.764 242.72 162.207 241.84 C 159.73 240.96 156.015 239.72 151.062 238.12 C 145.869 236.36 141.874 234.24 139.078 231.76 C 136.282 229.28 134.884 225.6 134.884 220.72 C 134.884 215.28 136.841 211.12 140.756 208.24 C 144.75 205.28 151.142 203.8 159.93 203.8 C 163.446 203.8 166.761 204.08 169.877 204.64 C 172.993 205.12 175.629 205.72 177.786 206.44 L 177.786 219.76 C 175.629 218.72 173.153 217.96 170.356 217.48 C 167.56 216.92 164.963 216.64 162.567 216.64 C 159.131 216.64 156.375 216.88 154.298 217.36 C 152.3 217.84 151.302 218.88 151.302 220.48 C 151.302 222.24 152.38 223.48 154.537 224.2 C 156.774 224.92 160.21 226 164.844 227.44 C 169.398 228.8 172.953 230.28 175.509 231.88 C 178.066 233.48 179.864 235.4 180.902 237.64 C 181.941 239.8 182.46 242.52 182.46 245.8 C 182.46 257.32 174.071 263.08 157.294 263.08 Z" stroke-linecap="round" />
</g>
<g transform="matrix(0.59 0 0 0.59 630.95 534.02)"  >
<path style="stroke: rgb(230,230,230); stroke-width: 1; stroke-dasharray: none; stroke-linecap: butt; stroke-dashoffset: 0; stroke-linejoin: miter; stroke-miterlimit: 4; fill: none; fill-rule: nonzero; opacity: 1;" vector-effect="non-scaling-stroke"  transform=" translate(-202.86, -221.86)" d="M 197.644 194.56 L 197.644 181.84 L 215.261 181.84 L 215.261 194.56 L 197.644 194.56 Z M 198.962 261.88 L 198.962 217 L 190.454 217 L 191.892 205 L 215.141 205 L 215.141 261.88 L 198.962 261.88 Z" stroke-linecap="round" />
</g>
<g transform="matrix(0.59 0 0 0.59 662.74 546.73)"  >
<path style="stroke: rgb(230,230,230); stroke-width: 1; stroke-dasharray: none; stroke-linecap: butt; stroke-dashoffset: 0; stroke-linejoin: miter; stroke-miterlimit: 4; fill: none; fill-rule: nonzero; opacity: 1;" vector-effect="non-scaling-stroke"  transform=" translate(-256.72, -243.4)" d="M 252.884 283 C 248.65 283 244.295 282.72 239.821 282.16 C 235.427 281.6 231.712 280.8 228.676 279.76 L 228.676 267.64 C 231.872 268.68 235.627 269.48 239.941 270.04 C 244.255 270.68 248.29 271 252.045 271 C 257.558 271 261.552 270.68 264.029 270.04 C 266.506 269.48 267.744 268.44 267.744 266.92 C 267.744 265.64 267.185 264.76 266.066 264.28 C 265.028 263.8 262.791 263.56 259.355 263.56 L 243.896 263.56 C 233.749 263.56 228.676 259.8 228.676 252.28 C 228.676 249.96 229.315 247.84 230.594 245.92 C 231.872 244 233.909 242.48 236.705 241.36 C 230.234 238.08 226.998 232.56 226.998 224.8 C 226.998 217.44 229.275 212.12 233.829 208.84 C 238.383 205.48 245.134 203.8 254.082 203.8 C 255.92 203.8 257.917 203.96 260.074 204.28 C 262.311 204.52 263.989 204.76 265.108 205 L 286.439 205 L 286.079 215.2 L 277.092 215.2 C 279.568 217.52 280.807 220.76 280.807 224.92 C 280.807 230.76 278.969 235.44 275.294 238.96 C 271.619 242.4 266.186 244.12 258.996 244.12 C 257.717 244.12 256.479 244.08 255.281 244 C 254.162 243.84 253.004 243.68 251.805 243.52 C 249.408 243.84 247.371 244.4 245.693 245.2 C 244.096 246 243.297 247.08 243.297 248.44 C 243.297 250.28 244.934 251.2 248.21 251.2 L 264.269 251.2 C 270.021 251.2 274.455 252.52 277.571 255.16 C 280.687 257.72 282.245 261.48 282.245 266.44 C 282.245 272.04 279.728 276.2 274.695 278.92 C 269.661 281.64 262.391 283 252.884 283 Z M 254.202 235 C 258.996 235 262.311 234.2 264.149 232.6 C 266.066 230.92 267.025 228.12 267.025 224.2 C 267.025 220.28 266.066 217.44 264.149 215.68 C 262.311 213.92 258.996 213.04 254.202 213.04 C 249.648 213.04 246.373 213.92 244.375 215.68 C 242.378 217.36 241.379 220.2 241.379 224.2 C 241.379 227.88 242.298 230.6 244.136 232.36 C 246.053 234.12 249.409 235 254.202 235 Z" stroke-linecap="round" />
</g>
<g transform="matrix(0.59 0 0 0.59 701.11 540.49)"  >
<path style="stroke: rgb(230,230,230); stroke-width: 1; stroke-dasharray: none; stroke-linecap: butt; stroke-dashoffset: 0; stroke-linejoin: miter; stroke-miterlimit: 4; fill: none; fill-rule: nonzero; opacity: 1;" vector-effect="non-scaling-stroke"  transform=" translate(-321.75, -232.84)" d="M 293.166 261.88 L 293.166 205 L 308.146 205 L 308.745 210.4 C 311.062 208.64 313.978 207.12 317.493 205.84 C 321.089 204.48 324.844 203.8 328.758 203.8 C 336.268 203.8 341.741 205.56 345.177 209.08 C 348.612 212.6 350.33 218.04 350.33 225.4 L 350.33 261.88 L 334.151 261.88 L 334.151 226.24 C 334.151 222.4 333.352 219.68 331.754 218.08 C 330.236 216.48 327.36 215.68 323.126 215.68 C 320.649 215.68 318.133 216.24 315.576 217.36 C 313.099 218.48 311.022 219.88 309.344 221.56 L 309.344 261.88 L 293.166 261.88 Z" stroke-linecap="round" />
</g>
<g transform="matrix(0.59 0 0 0.59 377.52 653.38)"  >
<path style="stroke: rgb(230,230,230); stroke-width: 1; stroke-dasharray: none; stroke-linecap: butt; stroke-dashoffset: 0; stroke-linejoin: miter; stroke-miterlimit: 4; fill: none; fill-rule: nonzero; opacity: 1;" vector-effect="non-scaling-stroke"  transform=" translate(-30.72, -222.04)" d="M 27.1251 263.08 C 22.0918 263.08 17.5779 262.2 13.5832 260.44 C 9.66842 258.6 6.59253 255.64 4.35552 251.56 C 2.11851 247.4 1 241.92 1 235.12 C 1 228.32 2.23835 222.6 4.71504 217.96 C 7.19173 213.32 10.5073 209.8 14.6618 207.4 C 18.8162 205 23.3701 203.8 28.3235 203.8 C 34.5552 203.8 39.8681 205.24 44.2622 208.12 L 44.2622 181 L 60.4406 181 L 60.4406 261.88 L 46.5392 261.88 L 45.5805 256.6 C 43.1038 258.76 40.3874 260.4 37.4313 261.52 C 34.5552 262.56 31.1198 263.08 27.1251 263.08 Z M 31.5592 251.2 C 36.5925 251.2 40.8268 249.48 44.2622 246.04 L 44.2622 220.12 C 40.9067 217.16 36.9919 215.68 32.5179 215.68 C 22.4513 215.68 17.4181 222.16 17.4181 235.12 C 17.4181 241.2 18.6564 245.4 21.1331 247.72 C 23.6098 250.04 27.0852 251.2 31.5592 251.2 Z" stroke-linecap="round" />
</g>
<g transform="matrix(0.59 0 0 0.59 417.54 660.11)"  >
<path style="stroke: rgb(230,230,230); stroke-width: 1; stroke-dasharray: none; stroke-linecap: butt; stroke-dashoffset: 0; stroke-linejoin: miter; stroke-miterlimit: 4; fill: none; fill-rule: nonzero; opacity: 1;" vector-effect="non-scaling-stroke"  transform=" translate(-98.56, -233.44)" d="M 102.514 263.08 C 92.6869 263.08 84.8973 260.64 79.145 255.76 C 73.3927 250.8 70.5165 243.32 70.5165 233.32 C 70.5165 224.28 72.9133 217.12 77.7069 211.84 C 82.5804 206.48 89.8107 203.8 99.3979 203.8 C 108.186 203.8 114.897 206.12 119.531 210.76 C 124.245 215.32 126.602 221.32 126.602 228.76 L 126.602 239.08 L 85.4965 239.08 C 86.3753 243.64 88.4526 246.76 91.7282 248.44 C 95.0837 250.12 99.7974 250.96 105.869 250.96 C 108.905 250.96 111.981 250.68 115.097 250.12 C 118.293 249.56 121.009 248.84 123.246 247.96 L 123.246 259.48 C 120.61 260.68 117.534 261.56 114.018 262.12 C 110.503 262.76 106.668 263.08 102.514 263.08 Z M 85.4965 229.12 L 112.46 229.12 L 112.46 226 C 112.46 222.72 111.502 220.16 109.584 218.32 C 107.667 216.4 104.431 215.44 99.8773 215.44 C 94.5244 215.44 90.7695 216.52 88.6124 218.68 C 86.5351 220.84 85.4965 224.32 85.4965 229.12 Z" stroke-linecap="round" />
</g>
<g transform="matrix(0.59 0 0 0.59 453.01 660.11)"  >
<path style="stroke: rgb(230,230,230); stroke-width: 1; stroke-dasharray: none; stroke-linecap: butt; stroke-dashoffset: 0; stroke-linejoin: miter; stroke-miterlimit: 4; fill: none; fill-rule: nonzero; opacity: 1;" vector-effect="non-scaling-stroke"  transform=" translate(-158.67, -233.44)" d="M 157.294 263.08 C 153.059 263.08 149.025 262.76 145.19 262.12 C 141.355 261.56 138.279 260.84 135.962 259.96 L 135.962 246.52 C 138.758 247.64 141.914 248.52 145.43 249.16 C 148.945 249.72 152.181 250 155.137 250 C 159.131 250 161.928 249.76 163.525 249.28 C 165.203 248.8 166.042 247.72 166.042 246.04 C 166.042 244.12 164.764 242.72 162.207 241.84 C 159.73 240.96 156.015 239.72 151.062 238.12 C 145.869 236.36 141.874 234.24 139.078 231.76 C 136.282 229.28 134.884 225.6 134.884 220.72 C 134.884 215.28 136.841 211.12 140.756 208.24 C 144.75 205.28 151.142 203.8 159.93 203.8 C 163.446 203.8 166.761 204.08 169.877 204.64 C 172.993 205.12 175.629 205.72 177.786 206.44 L 177.786 219.76 C 175.629 218.72 173.153 217.96 170.356 217.48 C 167.56 216.92 164.963 216.64 162.567 216.64 C 159.131 216.64 156.375 216.88 154.298 217.36 C 152.3 217.84 151.302 218.88 151.302 220.48 C 151.302 222.24 152.38 223.48 154.537 224.2 C 156.774 224.92 160.21 226 164.844 227.44 C 169.398 228.8 172.953 230.28 175.509 231.88 C 178.066 233.48 179.864 235.4 180.902 237.64 C 181.941 239.8 182.46 242.52 182.46 245.8 C 182.46 257.32 174.071 263.08 157.294 263.08 Z" stroke-linecap="round" />
</g>
<g transform="matrix(0.59 0 0 0.59 479.07 653.28)"  >
<path style="stroke: rgb(230,230,230); stroke-width: 1; stroke-dasharray: none; stroke-linecap: butt; stroke-dashoffset: 0; stroke-linejoin: miter; stroke-miterlimit: 4; fill: none; fill-rule: nonzero; opacity: 1;" vector-effect="non-scaling-stroke"  transform=" translate(-202.86, -221.86)" d="M 197.644 194.56 L 197.644 181.84 L 215.261 181.84 L 215.261 194.56 L 197.644 194.56 Z M 198.962 261.88 L 198.962 217 L 190.454 217 L 191.892 205 L 215.141 205 L 215.141 261.88 L 198.962 261.88 Z" stroke-linecap="round" />
</g>
<g transform="matrix(0.59 0 0 0.59 510.86 665.98)"  >
<path style="stroke: rgb(230,230,230); stroke-width: 1; stroke-dasharray: none; stroke-linecap: butt; stroke-dashoffset: 0; stroke-linejoin: miter; stroke-miterlimit: 4; fill: none; fill-rule: nonzero; opacity: 1;" vector-effect="non-scaling-stroke"  transform=" translate(-256.72, -243.4)" d="M 252.884 283 C 248.65 283 244.295 282.72 239.821 282.16 C 235.427 281.6 231.712 280.8 228.676 279.76 L 228.676 267.64 C 231.872 268.68 235.627 269.48 239.941 270.04 C 244.255 270.68 248.29 271 252.045 271 C 257.558 271 261.552 270.68 264.029 270.04 C 266.506 269.48 267.744 268.44 267.744 266.92 C 267.744 265.64 267.185 264.76 266.066 264.28 C 265.028 263.8 262.791 263.56 259.355 263.56 L 243.896 263.56 C 233.749 263.56 228.676 259.8 228.676 252.28 C 228.676 249.96 229.315 247.84 230.594 245.92 C 231.872 244 233.909 242.48 236.705 241.36 C 230.234 238.08 226.998 232.56 226.998 224.8 C 226.998 217.44 229.275 212.12 233.829 208.84 C 238.383 205.48 245.134 203.8 254.082 203.8 C 255.92 203.8 257.917 203.96 260.074 204.28 C 262.311 204.52 263.989 204.76 265.108 205 L 286.439 205 L 286.079 215.2 L 277.092 215.2 C 279.568 217.52 280.807 220.76 280.807 224.92 C 280.807 230.76 278.969 235.44 275.294 238.96 C 271.619 242.4 266.186 244.12 258.996 244.12 C 257.717 244.12 256.479 244.08 255.281 244 C 254.162 243.84 253.004 243.68 251.805 243.52 C 249.408 243.84 247.371 244.4 245.693 245.2 C 244.096 246 243.297 247.08 243.297 248.44 C 243.297 250.28 244.934 251.2 248.21 251.2 L 264.269 251.2 C 270.021 251.2 274.455 252.52 277.571 255.16 C 280.687 257.72 282.245 261.48 282.245 266.44 C 282.245 272.04 279.728 276.2 274.695 278.92 C 269.661 281.64 262.391 283 252.884 283 Z M 254.202 235 C 258.996 235 262.311 234.2 264.149 232.6 C 266.066 230.92 267.025 228.12 267.025 224.2 C 267.025 220.28 266.066 217.44 264.149 215.68 C 262.311 213.92 258.996 213.04 254.202 213.04 C 249.648 213.04 246.373 213.92 244.375 215.68 C 242.378 217.36 241.379 220.2 241.379 224.2 C 241.379 227.88 242.298 230.6 244.136 232.36 C 246.053 234.12 249.409 235 254.202 235 Z" stroke-linecap="round" />
</g>
<g transform="matrix(0.59 0 0 0.59 549.22 659.75)"  >
<path style="stroke: rgb(230,230,230); stroke-width: 1; stroke-dasharray: none; stroke-linecap: butt; stroke-dashoffset: 0; stroke-linejoin: miter; stroke-miterlimit: 4; fill: none; fill-rule: nonzero; opacity: 1;" vector-effect="non-scaling-stroke"  transform=" translate(-321.75, -232.84)" d="M 293.166 261.88 L 293.166 205 L 308.146 205 L 308.745 210.4 C 311.062 208.64 313.978 207.12 317.493 205.84 C 321.089 204.48 324.844 203.8 328.758 203.8 C 336.268 203.8 341.741 205.56 345.177 209.08 C 348.612 212.6 350.33 218.04 350.33 225.4 L 350.33 261.88 L 334.151 261.88 L 334.151 226.24 C 334.151 222.4 333.352 219.68 331.754 218.08 C 330.236 216.48 327.36 215.68 323.126 215.68 C 320.649 215.68 318.133 216.24 315.576 217.36 C 313.099 218.48 311.022 219.88 309.344 221.56 L 309.344 261.88 L 293.166 261.88 Z" stroke-linecap="round" />
</g>
</svg>